<mxfile host="www.draw.io" modified="2019-11-19T09:27:07.984Z" agent="Mozilla/5.0 (Windows NT 10.0; WOW64) AppleWebKit/537.36 (KHTML, like Gecko) Chrome/78.0.3904.97 Safari/537.36" etag="U9SY3FCZ1ScoFG2nd-pf" version="12.2.6" type="github" pages="1">
  <diagram id="93UM9QraI6grFH_-O8MO" name="第 1 页">
    <mxGraphModel dx="868" dy="450" grid="1" gridSize="10" guides="1" tooltips="1" connect="1" arrows="1" fold="1" page="1" pageScale="1" pageWidth="827" pageHeight="1169" math="0" shadow="0">
      <root>
        <mxCell id="0"/>
        <mxCell id="1" parent="0"/>
        <mxCell id="i2Cnn-BPijUrhdFYm8es-1" value="" style="rounded=1;whiteSpace=wrap;html=1;" vertex="1" parent="1">
          <mxGeometry x="390" y="60" width="130" height="590" as="geometry"/>
        </mxCell>
        <mxCell id="i2Cnn-BPijUrhdFYm8es-2" value="订单中心" style="rounded=1;whiteSpace=wrap;html=1;" vertex="1" parent="1">
          <mxGeometry x="395" y="150" width="120" height="60" as="geometry"/>
        </mxCell>
        <mxCell id="i2Cnn-BPijUrhdFYm8es-3" value="&lt;b&gt;核心系统&lt;/b&gt;" style="rounded=1;whiteSpace=wrap;html=1;strokeColor=none;" vertex="1" parent="1">
          <mxGeometry x="395" y="80" width="120" height="60" as="geometry"/>
        </mxCell>
        <mxCell id="i2Cnn-BPijUrhdFYm8es-4" value="支付中心" style="rounded=1;whiteSpace=wrap;html=1;" vertex="1" parent="1">
          <mxGeometry x="395" y="220" width="120" height="60" as="geometry"/>
        </mxCell>
        <mxCell id="i2Cnn-BPijUrhdFYm8es-5" value="核算中心" style="rounded=1;whiteSpace=wrap;html=1;" vertex="1" parent="1">
          <mxGeometry x="395" y="290" width="120" height="60" as="geometry"/>
        </mxCell>
        <mxCell id="i2Cnn-BPijUrhdFYm8es-6" value="账务中心" style="rounded=1;whiteSpace=wrap;html=1;" vertex="1" parent="1">
          <mxGeometry x="395" y="360" width="120" height="60" as="geometry"/>
        </mxCell>
        <mxCell id="i2Cnn-BPijUrhdFYm8es-7" value="产品中心" style="rounded=1;whiteSpace=wrap;html=1;" vertex="1" parent="1">
          <mxGeometry x="395" y="430" width="120" height="60" as="geometry"/>
        </mxCell>
        <mxCell id="i2Cnn-BPijUrhdFYm8es-8" value="合同中心" style="rounded=1;whiteSpace=wrap;html=1;" vertex="1" parent="1">
          <mxGeometry x="395" y="500" width="120" height="60" as="geometry"/>
        </mxCell>
        <mxCell id="i2Cnn-BPijUrhdFYm8es-9" value="&lt;b&gt;&lt;font style=&quot;font-size: 8px&quot;&gt;模块&lt;/font&gt;&lt;/b&gt;" style="text;html=1;resizable=0;points=[];autosize=1;align=left;verticalAlign=top;spacingTop=-4;" vertex="1" parent="1">
          <mxGeometry x="435" y="20" width="40" height="20" as="geometry"/>
        </mxCell>
        <mxCell id="i2Cnn-BPijUrhdFYm8es-21" value="跑批中心" style="rounded=1;whiteSpace=wrap;html=1;" vertex="1" parent="1">
          <mxGeometry x="395" y="570" width="120" height="60" as="geometry"/>
        </mxCell>
      </root>
    </mxGraphModel>
  </diagram>
</mxfile>
